<?xml version="1.0" encoding="UTF-8"?>
<!DOCTYPE svg PUBLIC "-//W3C//DTD SVG 1.1//EN" "http://www.w3.org/Graphics/SVG/1.1/DTD/svg11.dtd">
<svg xmlns="http://www.w3.org/2000/svg" version="1.1" width="72px" height="72px" style="shape-rendering:geometricPrecision; text-rendering:geometricPrecision; image-rendering:optimizeQuality; fill-rule:evenodd; clip-rule:evenodd" xmlns:xlink="http://www.w3.org/1999/xlink">
<g><path style="opacity:0.945" fill="#ffaffe" d="M 35.5,7.5 C 41.1667,12.5 46.5,17.8333 51.5,23.5C 48.9949,25.0114 46.3283,26.3447 43.5,27.5C 41.1667,24.5 38.5,21.8333 35.5,19.5C 35.5,15.5 35.5,11.5 35.5,7.5 Z"/></g>
<g><path style="opacity:0.999" fill="#ff6cf9" d="M 35.5,7.5 C 35.5,11.5 35.5,15.5 35.5,19.5C 32.8697,21.6281 30.3697,23.9614 28,26.5C 27.3333,32.5 27.3333,38.5 28,44.5C 30.3494,47.0168 32.8494,49.3501 35.5,51.5C 38.1506,49.3501 40.6506,47.0168 43,44.5C 43.4994,38.8431 43.6661,33.1764 43.5,27.5C 46.3283,26.3447 48.9949,25.0114 51.5,23.5C 52.6561,31.3225 52.8228,39.3225 52,47.5C 46.8333,52.6667 41.6667,57.8333 36.5,63C 35.8333,63.6667 35.1667,63.6667 34.5,63C 29.3333,57.8333 24.1667,52.6667 19,47.5C 18.3333,39.5 18.3333,31.5 19,23.5C 24.3686,17.9637 29.8686,12.6303 35.5,7.5 Z"/></g>
<g><path style="opacity:1" fill="#ffdcf9" d="M 35.5,19.5 C 38.5,21.8333 41.1667,24.5 43.5,27.5C 43.6661,33.1764 43.4994,38.8431 43,44.5C 40.6506,47.0168 38.1506,49.3501 35.5,51.5C 32.8494,49.3501 30.3494,47.0168 28,44.5C 27.3333,38.5 27.3333,32.5 28,26.5C 30.3697,23.9614 32.8697,21.6281 35.5,19.5 Z"/></g>
</svg>
