<?xml version="1.0" encoding="UTF-8"?>
<!DOCTYPE svg PUBLIC "-//W3C//DTD SVG 1.1//EN" "http://www.w3.org/Graphics/SVG/1.1/DTD/svg11.dtd">
<svg xmlns="http://www.w3.org/2000/svg" version="1.1" width="72px" height="72px" style="shape-rendering:geometricPrecision; text-rendering:geometricPrecision; image-rendering:optimizeQuality; fill-rule:evenodd; clip-rule:evenodd" xmlns:xlink="http://www.w3.org/1999/xlink">
<g><path style="opacity:0.754" fill="#ffd735" d="M 18.5,7.5 C 19.4778,7.81103 20.1445,8.4777 20.5,9.5C 19.1667,11.5 19.1667,13.5 20.5,15.5C 17.5,15.5 14.5,15.5 11.5,15.5C 13.9733,13.2464 13.9733,11.0797 11.5,9C 13.1124,8.27969 14.6124,8.44636 16,9.5C 16.9947,8.93406 17.828,8.26739 18.5,7.5 Z"/></g>
<g><path style="opacity:0.991" fill="#fe73f9" d="M 35.5,9.5 C 35.5,12.5 35.5,15.5 35.5,18.5C 30.8607,21.1548 26.194,23.8215 21.5,26.5C 20.5041,32.4632 20.1707,38.4632 20.5,44.5C 17.8599,45.8201 15.1932,47.1534 12.5,48.5C 12.1685,39.4754 12.5018,30.4754 13.5,21.5C 20.5674,16.9672 27.9007,12.9672 35.5,9.5 Z"/></g>
<g><path style="opacity:0.924" fill="#ffc0fe" d="M 35.5,9.5 C 43.428,13.4411 51.0947,17.7744 58.5,22.5C 55.9745,23.6808 53.4745,25.0142 51,26.5C 50.5065,28.1341 50.3398,29.8008 50.5,31.5C 49.5655,30.4324 49.2322,29.099 49.5,27.5C 49.1667,26.5 48.5,25.8333 47.5,25.5C 43.5423,23.2344 39.5423,20.901 35.5,18.5C 35.5,15.5 35.5,12.5 35.5,9.5 Z"/></g>
<g><path style="opacity:1" fill="#ffdcf9" d="M 35.5,18.5 C 39.5423,20.901 43.5423,23.2344 47.5,25.5C 44.9837,25.7553 42.6504,26.5886 40.5,28C 34.6641,31.7524 28.6641,35.2524 22.5,38.5C 21.3691,40.0745 21.2025,41.7412 22,43.5C 31.1122,38.0288 40.2789,32.6955 49.5,27.5C 49.2322,29.099 49.5655,30.4324 50.5,31.5C 50.8256,35.8839 50.4922,40.2172 49.5,44.5C 44.806,47.1785 40.1393,49.8452 35.5,52.5C 32.7972,50.8193 30.1305,49.1526 27.5,47.5C 28.8734,47.6567 30.2068,47.49 31.5,47C 37.0021,43.4145 42.6688,40.0812 48.5,37C 49.7472,35.5064 49.7472,34.0064 48.5,32.5C 40.603,36.9411 32.9364,41.6078 25.5,46.5C 23.9505,45.5592 22.2838,44.8925 20.5,44.5C 20.1707,38.4632 20.5041,32.4632 21.5,26.5C 26.194,23.8215 30.8607,21.1548 35.5,18.5 Z"/></g>
<g><path style="opacity:0.955" fill="#fe75fa" d="M 58.5,22.5 C 58.8315,31.5246 58.4982,40.5246 57.5,49.5C 56.2613,49.9424 55.2613,50.6091 54.5,51.5C 53.8386,50.2825 53.1719,48.9492 52.5,47.5C 51.5344,49.396 51.2011,51.396 51.5,53.5C 50.5084,53.3284 49.8417,53.6618 49.5,54.5C 47.8333,54.5 46.1667,54.5 44.5,54.5C 44.5,55.5 44.5,56.5 44.5,57.5C 41.6484,59.0909 38.6484,60.4242 35.5,61.5C 35.5,58.5 35.5,55.5 35.5,52.5C 40.1393,49.8452 44.806,47.1785 49.5,44.5C 50.4922,40.2172 50.8256,35.8839 50.5,31.5C 50.3398,29.8008 50.5065,28.1341 51,26.5C 53.4745,25.0142 55.9745,23.6808 58.5,22.5 Z"/></g>
<g><path style="opacity:1" fill="#fffcfe" d="M 47.5,25.5 C 48.5,25.8333 49.1667,26.5 49.5,27.5C 40.2789,32.6955 31.1122,38.0288 22,43.5C 21.2025,41.7412 21.3691,40.0745 22.5,38.5C 28.6641,35.2524 34.6641,31.7524 40.5,28C 42.6504,26.5886 44.9837,25.7553 47.5,25.5 Z"/></g>
<g><path style="opacity:1" fill="#fefcfe" d="M 27.5,47.5 C 26.5084,47.6716 25.8417,47.3382 25.5,46.5C 32.9364,41.6078 40.603,36.9411 48.5,32.5C 49.7472,34.0064 49.7472,35.5064 48.5,37C 42.6688,40.0812 37.0021,43.4145 31.5,47C 30.2068,47.49 28.8734,47.6567 27.5,47.5 Z"/></g>
<g><path style="opacity:0.962" fill="#e657d4" d="M 20.5,44.5 C 22.2838,44.8925 23.9505,45.5592 25.5,46.5C 25.8417,47.3382 26.5084,47.6716 27.5,47.5C 30.1305,49.1526 32.7972,50.8193 35.5,52.5C 35.5,55.5 35.5,58.5 35.5,61.5C 27.572,57.5589 19.9053,53.2256 12.5,48.5C 15.1932,47.1534 17.8599,45.8201 20.5,44.5 Z"/></g>
<g><path style="opacity:0.894" fill="#d6dcfe" d="M 54.5,51.5 C 54.0269,52.9063 53.0269,53.573 51.5,53.5C 51.2011,51.396 51.5344,49.396 52.5,47.5C 53.1719,48.9492 53.8386,50.2825 54.5,51.5 Z"/></g>
<g><path style="opacity:0.822" fill="#d3e2fe" d="M 49.5,54.5 C 50.7736,55.1894 50.7736,56.0228 49.5,57C 47.8659,57.4935 46.1992,57.6602 44.5,57.5C 44.5,56.5 44.5,55.5 44.5,54.5C 46.1667,54.5 47.8333,54.5 49.5,54.5 Z"/></g>
<g><path style="opacity:0.771" fill="#d2e2ff" d="M 55.5,53.5 C 58.9496,52.7564 60.6162,54.0897 60.5,57.5C 58.5,57.5 56.5,57.5 54.5,57.5C 54.4326,56.0413 54.7659,54.7079 55.5,53.5 Z"/></g>
<g><path style="opacity:0.755" fill="#d2e2ff" d="M 51.5,57.5 C 55.0013,59.347 55.3347,61.6803 52.5,64.5C 50.2395,62.5165 49.9061,60.1831 51.5,57.5 Z"/></g>
</svg>
