<?xml version="1.0" encoding="UTF-8"?>
<!DOCTYPE svg PUBLIC "-//W3C//DTD SVG 1.1//EN" "http://www.w3.org/Graphics/SVG/1.1/DTD/svg11.dtd">
<svg xmlns="http://www.w3.org/2000/svg" version="1.1" width="72px" height="72px" style="shape-rendering:geometricPrecision; text-rendering:geometricPrecision; image-rendering:optimizeQuality; fill-rule:evenodd; clip-rule:evenodd" xmlns:xlink="http://www.w3.org/1999/xlink">
<g><path style="opacity:0.981" fill="#f37a67" d="M 28.5,8.5 C 45.0895,6.36864 56.2562,13.0353 62,28.5C 64.621,45.1032 58.121,56.2699 42.5,62C 25.8968,64.621 14.7301,58.121 9,42.5C 6.50413,25.8078 13.0041,14.4744 28.5,8.5 Z M 21.5,29.5 C 21.56,28.9569 21.8933,28.6236 22.5,28.5C 25.3681,30.5318 28.3681,32.3651 31.5,34C 32.9557,35.7448 34.289,37.5781 35.5,39.5C 38.9996,34.2697 43.6663,30.7697 49.5,29C 48.0394,31.4206 46.7061,33.9206 45.5,36.5C 46.376,37.2508 47.376,37.7508 48.5,38C 44.1667,41.1667 39.8333,44.3333 35.5,47.5C 31.1667,44.3333 26.8333,41.1667 22.5,38C 23.624,37.7508 24.624,37.2508 25.5,36.5C 24.3924,33.9409 23.0591,31.6076 21.5,29.5 Z"/></g>
</svg>
