<?xml version="1.0" encoding="UTF-8"?>
<!DOCTYPE svg PUBLIC "-//W3C//DTD SVG 1.1//EN" "http://www.w3.org/Graphics/SVG/1.1/DTD/svg11.dtd">
<svg xmlns="http://www.w3.org/2000/svg" version="1.1" width="600px" height="600px" style="shape-rendering:geometricPrecision; text-rendering:geometricPrecision; image-rendering:optimizeQuality; fill-rule:evenodd; clip-rule:evenodd" xmlns:xlink="http://www.w3.org/1999/xlink">
<g><path style="opacity:0.996" fill="#f47a66" d="M 284.5,3.5 C 388.769,1.48783 472.936,41.1545 537,122.5C 591.862,199.984 607.862,284.984 585,377.5C 554.095,479.405 488.261,547.572 387.5,582C 295.205,608.283 209.205,594.949 129.5,542C 47.831,481.841 5.83099,400.674 3.5,298.5C 7.01485,187.586 55.3482,102.753 148.5,44C 190.765,19.8529 236.098,6.3529 284.5,3.5 Z M 487.5,176.5 C 488.5,176.5 489.5,176.5 490.5,176.5C 491.553,179.852 491.553,183.185 490.5,186.5C 468.25,226.611 446.583,267.111 425.5,308C 426.236,310.139 427.236,312.139 428.5,314C 442.512,314.167 456.512,314.667 470.5,315.5C 471.52,317.432 471.687,319.432 471,321.5C 414.921,361.456 358.754,401.29 302.5,441C 300.212,441.418 298.212,440.751 296.5,439C 240.667,399.833 184.833,360.667 129,321.5C 128.503,319.19 128.337,316.857 128.5,314.5C 143.182,314.833 157.848,314.499 172.5,313.5C 172.931,312.707 173.265,311.873 173.5,311C 152.469,269.771 131.302,228.604 110,187.5C 109.503,184.854 109.336,182.187 109.5,179.5C 111.857,179.337 114.19,179.503 116.5,180C 166.827,213.165 217.493,245.832 268.5,278C 269.977,280.445 271.81,282.612 274,284.5C 281.333,300.5 288.667,316.5 296,332.5C 298.243,334.282 300.743,334.782 303.5,334C 305.333,332.167 307.167,330.333 309,328.5C 316.838,312.824 324.671,297.158 332.5,281.5C 384.059,246.23 435.726,211.23 487.5,176.5 Z"/></g>
</svg>
