<?xml version="1.0" encoding="UTF-8"?>
<!DOCTYPE svg PUBLIC "-//W3C//DTD SVG 1.1//EN" "http://www.w3.org/Graphics/SVG/1.1/DTD/svg11.dtd">
<svg xmlns="http://www.w3.org/2000/svg" version="1.1" width="72px" height="72px" style="shape-rendering:geometricPrecision; text-rendering:geometricPrecision; image-rendering:optimizeQuality; fill-rule:evenodd; clip-rule:evenodd" xmlns:xlink="http://www.w3.org/1999/xlink">
<g><path style="opacity:0.99" fill="#9b83ee" d="M 10.5,8.5 C 27.1667,8.5 43.8333,8.5 60.5,8.5C 60.6665,20.1714 60.4999,31.8381 60,43.5C 52.2365,50.4395 44.0699,56.7728 35.5,62.5C 26.9301,56.7728 18.7635,50.4395 11,43.5C 10.5001,31.8381 10.3335,20.1714 10.5,8.5 Z M 19.5,25.5 C 26.3785,27.8474 31.5452,32.1807 35,38.5C 36.3767,36.2462 37.8767,34.0795 39.5,32C 43.5894,29.8733 47.4228,27.3733 51,24.5C 50.1193,28.2828 48.6193,31.9495 46.5,35.5C 47.376,36.2508 48.376,36.7508 49.5,37C 44.6667,40.5 39.8333,44 35,47.5C 30.2551,43.8776 25.4218,40.3776 20.5,37C 21.448,36.5172 22.448,36.3505 23.5,36.5C 22.4519,32.7356 21.1185,29.069 19.5,25.5 Z"/></g>
</svg>
